<svg height='100px' width='100px' fill="#68217a" xmlns="http://www.w3.org/2000/svg" version="1.1" x="0px" y="0px" viewBox="0 0 100 100">
    <path d="M49.8874 41.14A14.8392 14.8392 90 1135.0482 55.9792A14.8554 14.8554 90 0149.8874 41.14ZM38.164 52.831a12.1068 12.1068 90 000 6.2964h5.2974a20.142 20.142 90 010-6.2964H38.164Zm8.7642-2.7h5.94a18.5922 18.5922 90 00-2.9592-5.3568A18.5814 18.5814 90 0046.9282 50.131Zm-.7182 2.7a17.5446 17.5446 90 000 6.2964H53.5648a17.5446 17.5446 90 000-6.2964Zm15.4008 0H56.308a20.142 20.142 90 010 6.2964H61.6a12.1068 12.1068 90 000-6.2964ZM52.8412 61.8274h-5.94a18.5868 18.5868 90 002.9592 5.3568A18.5868 18.5868 90 0052.8412 61.8274Zm-5.886 5.94a21.06 21.06 90 01-2.8782-5.94H39.2548A12.1878 12.1878 90 0046.9606 67.762ZM60.52 61.8274H55.6924a21.06 21.06 90 01-2.8782 5.94A12.1878 12.1878 90 0060.52 61.8274ZM52.8142 44.2018a21.0924 21.0924 90 012.8782 5.94H60.52A12.1878 12.1878 90 0052.8142 44.2018Zm-13.5648 5.94h4.8276a21.06 21.06 90 012.8782-5.94A12.1878 12.1878 90 0039.2548 50.131Z" />
    <path d="M77.82,84.25H22.18c-3.86,0-7-3.14-7-7v-42.8c0-3.86,3.14-7,7-7h55.65c3.86,0,7,3.14,7,7v42.8       C84.82,81.11,81.68,84.25,77.82,84.25z M22.18,31.44c-1.65,0-3,1.35-3,3v42.8c0,1.65,1.35,3,3,3h55.65c1.65,0,3-1.35,3-3v-42.8       c0-1.65-1.35-3-3-3H22.18z" />
    <path d="M64.99,92.54H35.01c-1.1,0-2-0.9-2-2s0.9-2,2-2h29.97c1.1,0,2,0.9,2,2S66.09,92.54,64.99,92.54z" />
    <path d="M50,92.54c-1.1,0-2-0.9-2-2v-8.29c0-1.1,0.9-2,2-2s2,0.9,2,2v8.29C52,91.64,51.1,92.54,50,92.54z" />
    <path d="M74.99,76.92H25.58c-2.07,0-3.75-1.68-3.75-3.75V38.86c0-2.07,1.68-3.75,3.75-3.75h49.41c2.07,0,3.75,1.68,3.75,3.75      v34.32C78.74,75.24,77.06,76.92,74.99,76.92z M25.58,37.11c-0.96,0-1.75,0.79-1.75,1.75v34.32c0,0.96,0.79,1.75,1.75,1.75h49.41      c0.96,0,1.75-0.79,1.75-1.75V38.86c0-0.96-0.79-1.75-1.75-1.75H25.58z" />

    <path d="M60.43 31.44c-.51 0-1.02-.2-1.41-.59l-15.7-15.7c-.78-.78-.78-2.05 0-2.83c.78-.78 2.05-.78 2.83 0l15.7 15.7c.78.78.78 2.05 0 2.83C61.45 31.25 60.94 31.44 60.43 31.44z" />
    <path d="M64.71 31.44c-.49 0-.98-.18-1.36-.53c-.81-.75-.86-2.02-.1-2.83L81.8 8.1c.75-.81 2.02-.86 2.83-.1c.81.75.86 2.02.1 2.83L66.17 30.8C65.78 31.23 65.25 31.44 64.71 31.44z" />
</svg>