<svg height='100px' width='100px'  fill="#68217a" xmlns="http://www.w3.org/2000/svg" xmlns:xlink="http://www.w3.org/1999/xlink" version="1.1" x="0px" y="0px" viewBox="0 0 100 100" style="enable-background:new 0 0 100 100;" xml:space="preserve"><g><g><g><g><g>
<path d="M77.82,84.25H22.18c-3.86,0-7-3.14-7-7v-42.8c0-3.86,3.14-7,7-7h55.65c3.86,0,7,3.14,7,7v42.8       C84.82,81.11,81.68,84.25,77.82,84.25z M22.18,31.44c-1.65,0-3,1.35-3,3v42.8c0,1.65,1.35,3,3,3h55.65c1.65,0,3-1.35,3-3v-42.8       c0-1.65-1.35-3-3-3H22.18z"></path>
</g></g></g><g><g><g>
<path d="M64.99,92.54H35.01c-1.1,0-2-0.9-2-2s0.9-2,2-2h29.97c1.1,0,2,0.9,2,2S66.09,92.54,64.99,92.54z"></path></g></g></g>
<g><g><g>
<path d="M51.43,31.44c-0.51,0-1.02-0.2-1.41-0.59l-15.7-15.7c-0.78-0.78-0.78-2.05,0-2.83c0.78-0.78,2.05-0.78,2.83,0       l15.7,15.7c0.78,0.78,0.78,2.05,0,2.83C52.45,31.25,51.94,31.44,51.43,31.44z"></path></g></g></g><g><g><g>
<path d="M55.71,31.44c-0.49,0-0.98-0.18-1.36-0.53c-0.81-0.75-0.86-2.02-0.1-2.83L72.8,8.1c0.75-0.81,2.02-0.86,2.83-0.1       c0.81,0.75,0.86,2.02,0.1,2.83L57.17,30.8C56.78,31.23,56.25,31.44,55.71,31.44z"></path></g></g></g>
</g><g><g><g>
<path d="M50,92.54c-1.1,0-2-0.9-2-2v-8.29c0-1.1,0.9-2,2-2s2,0.9,2,2v8.29C52,91.64,51.1,92.54,50,92.54z"></path></g></g></g><g><g><g>
<path d="M74.99,76.92H25.58c-2.07,0-3.75-1.68-3.75-3.75V38.86c0-2.07,1.68-3.75,3.75-3.75h49.41c2.07,0,3.75,1.68,3.75,3.75      v34.32C78.74,75.24,77.06,76.92,74.99,76.92z M25.58,37.11c-0.96,0-1.75,0.79-1.75,1.75v34.32c0,0.96,0.79,1.75,1.75,1.75h49.41      c0.96,0,1.75-0.79,1.75-1.75V38.86c0-0.96-0.79-1.75-1.75-1.75H25.58z"></path></g></g></g></g></svg>